# xmcd
#
# Track frame offsets:
#	150
#	2140
#	11475
#	20214
#	27045
#	40211
#	50375
#	55637
#	62255
#	70686
#	83338
#	91988
#	93496
#	108900
#	120170
#	130464
#	144387
#	159292
#	177528
#	183686
#	191309
#	203265
#
# Disc length: 2769 seconds
#
# Revision: 1
# Processed by: cddbd v1.5.2PL0 Copyright (c) Steve Scherf et al.
# Submitted via: audiograbber 1.83.01
#
DISCID=0b0acf16
DTITLE=Vários - Popular Mix 8
DYEAR=2005
DGENRE=Pop
TTITLE0=Super Popular
TTITLE1=Oh, Sr. Guarda
TTITLE2=Na tua casa tá entrado outro macho
TTITLE3=Coisinha Sexy
TTITLE4=Sensualidade Pura
TTITLE5=Pula pula, Mexe mexe
TTITLE6=Mini, Mini
TTITLE7=Morangos com açucar
TTITLE8=Boogie, Boogie ( The Song)
TTITLE9=Nossa Senhora do Amor
TTITLE10=100% Cool
TTITLE11=Super Popular
TTITLE12=Até nunca mais
TTITLE13=Nunca me esqueci de ti
TTITLE14=Brisa  viva
TTITLE15=Primeiro Beijo
TTITLE16=Carta passou-me ao lado
TTITLE17=Da próxima vez
TTITLE18=Dava-te tudo
TTITLE19=Só gosto de ti
TTITLE20=Bem Longe num sonho meu
TTITLE21=Super popular
EXTD=
EXTT0=
EXTT1=
EXTT2=
EXTT3=
EXTT4=
EXTT5=
EXTT6=
EXTT7=
EXTT8=
EXTT9=
EXTT10=
EXTT11=
EXTT12=
EXTT13=
EXTT14=
EXTT15=
EXTT16=
EXTT17=
EXTT18=
EXTT19=
EXTT20=
EXTT21=
PLAYORDER=
